<svg width="1530" height="412" viewBox="0 0 1530 412" fill="none" xmlns="http://www.w3.org/2000/svg">
<mask id="mask0_282_1177" style="mask-type:alpha" maskUnits="userSpaceOnUse" x="140" y="88" width="210" height="236">
<path fill-rule="evenodd" clip-rule="evenodd" d="M234.86 91.0929C241.083 87.5069 248.75 87.5069 254.973 91.0929L339.591 139.852C345.814 143.438 349.647 150.065 349.647 157.237V254.755C349.647 261.927 345.814 268.554 339.591 272.14L254.973 320.899C248.75 324.485 241.083 324.485 234.86 320.899L150.242 272.14C144.019 268.554 140.185 261.927 140.185 254.755V157.237C140.185 150.065 144.019 143.438 150.242 139.852L234.86 91.0929ZM174.476 247.912L174.368 164.056C174.364 160.357 176.348 156.941 179.563 155.112L204.482 140.941C206.76 139.646 209.589 141.285 209.599 143.905L209.736 180.5C209.75 184.281 212.826 187.336 216.608 187.323L273.002 187.126C276.775 187.112 279.827 184.05 279.827 180.277V143.956C279.827 141.324 282.672 139.676 284.955 140.986L309.576 155.11C312.768 156.942 314.737 160.341 314.737 164.021V247.919C314.737 251.595 312.773 254.99 309.588 256.823L284.959 270.995C282.676 272.309 279.827 270.661 279.827 268.027V234.005C279.827 230.223 276.76 227.157 272.978 227.157H216.583C212.811 227.157 209.749 230.207 209.734 233.979L209.6 268.07C209.59 270.694 206.753 272.332 204.475 271.028L179.645 256.815C176.452 254.987 174.48 251.591 174.476 247.912Z" fill="#131E28"/>
</mask>
<g mask="url(#mask0_282_1177)">
<path fill-rule="evenodd" clip-rule="evenodd" d="M234.86 91.0929C241.083 87.5069 248.75 87.5069 254.973 91.0929L339.591 139.852C345.814 143.438 349.647 150.065 349.647 157.237V254.755C349.647 261.927 345.814 268.554 339.591 272.14L254.973 320.899C248.75 324.485 241.083 324.485 234.86 320.899L150.242 272.14C144.019 268.554 140.185 261.927 140.185 254.755V157.237C140.185 150.065 144.019 143.438 150.242 139.852L234.86 91.0929ZM174.476 247.912L174.368 164.056C174.364 160.357 176.348 156.941 179.563 155.112L204.482 140.941C206.76 139.646 209.589 141.285 209.599 143.905L209.736 180.5C209.75 184.281 212.826 187.336 216.608 187.323L273.002 187.126C276.775 187.112 279.827 184.05 279.827 180.277V143.956C279.827 141.324 282.672 139.676 284.955 140.986L309.576 155.11C312.768 156.942 314.737 160.341 314.737 164.021V247.919C314.737 251.595 312.773 254.99 309.588 256.823L284.959 270.995C282.676 272.309 279.827 270.661 279.827 268.027V234.005C279.827 230.223 276.76 227.157 272.978 227.157H216.583C212.811 227.157 209.749 230.207 209.734 233.979L209.6 268.07C209.59 270.694 206.753 272.332 204.475 271.028L179.645 256.815C176.452 254.987 174.48 251.591 174.476 247.912Z" fill="#94C5FF"/>
<path opacity="0.33" d="M141.062 147.077L37.208 208.012L37.208 329.883L141.062 390.819L244.916 329.883L244.916 208.012L141.062 147.077Z" fill="#479BFF"/>
<path opacity="0.33" d="M348.771 147.077L244.917 208.012L244.917 329.883L348.771 390.819L452.625 329.883L452.625 208.012L348.771 147.077Z" fill="#94C5FF"/>
<path opacity="0.33" d="M244.917 -35.7053L141.063 25.2303L141.063 147.102L244.917 208.037L348.771 147.101L348.771 25.2303L244.917 -35.7053Z" fill="#E0EFFF"/>
<rect width="34.9089" height="237.935" transform="matrix(-1 8.91442e-08 8.57346e-08 1 349.647 85.1687)" fill="#8D5AF3" fill-opacity="0.5"/>
<rect width="34.9089" height="237.935" transform="matrix(-1 8.82221e-08 8.66307e-08 1 244.921 85.1687)" fill="#8D5AF3" fill-opacity="0.2"/>
<rect width="34.9089" height="237.935" transform="matrix(-1 9.03739e-08 8.4568e-08 1 314.738 85.1687)" fill="#8D5AF3" fill-opacity="0.4"/>
<rect width="34.9089" height="237.935" transform="matrix(-1 8.82221e-08 8.66307e-08 1 210.012 85.1687)" fill="#8D5AF3" fill-opacity="0.1"/>
<rect width="34.9089" height="237.935" transform="matrix(-1 9.03739e-08 8.4568e-08 1 279.83 85.1687)" fill="#8D5AF3" fill-opacity="0.3"/>
<rect width="34.8057" height="236.583" transform="matrix(-0.507435 0.86169 0.866491 0.499192 195.839 56.9897)" fill="#00A3FF" fill-opacity="0.5"/>
<rect width="35.0509" height="236.583" transform="matrix(-0.507435 0.86169 0.866491 0.499192 178.178 86.9814)" fill="#00A3FF" fill-opacity="0.4"/>
<rect width="35.0509" height="236.583" transform="matrix(-0.507435 0.86169 0.866491 0.499192 160.392 117.184)" fill="#00A3FF" fill-opacity="0.3"/>
<rect width="34.8057" height="236.583" transform="matrix(-0.507435 0.86169 0.866491 0.499192 142.606 147.386)" fill="#00A3FF" fill-opacity="0.2"/>
<rect width="35.0509" height="236.583" transform="matrix(-0.507435 0.86169 0.866491 0.499192 124.944 177.379)" fill="#00A3FF" fill-opacity="0.1"/>
<rect width="35.1373" height="236.16" transform="matrix(-0.49754 -0.867441 -0.86842 0.495829 382.318 208.565)" fill="#00FFC4" fill-opacity="0.1"/>
<rect width="35.1373" height="236.16" transform="matrix(-0.49754 -0.867441 -0.86842 0.495829 364.836 178.085)" fill="#00FFC4" fill-opacity="0.2"/>
<rect width="34.8915" height="236.16" transform="matrix(-0.49754 -0.867441 -0.86842 0.495829 347.354 147.605)" fill="#00FFC4" fill-opacity="0.3"/>
<rect width="35.1373" height="236.16" transform="matrix(-0.49754 -0.867441 -0.86842 0.495829 329.993 117.34)" fill="#00FFC4" fill-opacity="0.4"/>
<rect width="34.8915" height="236.16" transform="matrix(-0.49754 -0.867441 -0.86842 0.495829 312.51 86.8593)" fill="#00FFC4" fill-opacity="0.5"/>
</g>
<path d="M519.535 146.093V261.172H500.659V210.835H446.514V261.172H427.638V146.093H446.514V195.436H500.659V146.093H519.535ZM613.764 237.659H565.58L557.301 261.172H537.597L578.826 145.927H600.683L641.913 261.172H622.043L613.764 237.659ZM608.465 222.26L589.755 168.777L570.878 222.26H608.465ZM719.614 261.172L693.121 215.14H678.716V261.172H659.839V146.093H699.579C708.41 146.093 715.861 147.638 721.932 150.729C728.114 153.82 732.695 157.96 735.676 163.148C738.766 168.336 740.312 174.131 740.312 180.534C740.312 188.04 738.104 194.884 733.689 201.066C729.383 207.137 722.705 211.277 713.653 213.484L742.133 261.172H719.614ZM678.716 200.072H699.579C706.644 200.072 711.942 198.306 715.475 194.774C719.117 191.241 720.939 186.495 720.939 180.534C720.939 174.573 719.173 169.937 715.64 166.625C712.108 163.203 706.754 161.492 699.579 161.492H678.716V200.072ZM844.932 180.368C844.932 186.219 843.552 191.738 840.792 196.926C838.033 202.114 833.617 206.364 827.546 209.676C821.474 212.877 813.692 214.478 804.199 214.478H783.336V261.172H764.459V146.093H804.199C813.03 146.093 820.481 147.638 826.552 150.729C832.734 153.71 837.315 157.794 840.296 162.982C843.386 168.17 844.932 173.966 844.932 180.368ZM804.199 199.079C811.374 199.079 816.728 197.478 820.26 194.277C823.793 190.965 825.559 186.329 825.559 180.368C825.559 167.784 818.439 161.492 804.199 161.492H783.336V199.079H804.199ZM881.811 146.093V261.172H862.935V146.093H881.811ZM975.972 237.659H927.788L919.509 261.172H899.805L941.035 145.927H962.891L1004.12 261.172H984.251L975.972 237.659ZM970.674 222.26L951.963 168.777L933.087 222.26H970.674Z" fill="white"/>
<path d="M1056.82 262.331C1049.31 262.331 1042.75 261.006 1037.12 258.357C1031.49 255.707 1027.07 252.12 1023.87 247.594C1020.78 243.068 1019.01 238.045 1018.57 232.526H1026.35C1027.24 238.597 1030.05 244.006 1034.8 248.753C1039.65 253.5 1047 255.873 1056.82 255.873C1062.56 255.873 1067.53 254.824 1071.72 252.727C1076.03 250.63 1079.34 247.76 1081.66 244.117C1083.97 240.474 1085.13 236.445 1085.13 232.029C1085.13 226.4 1083.75 221.929 1080.99 218.617C1078.35 215.306 1074.98 212.822 1070.89 211.166C1066.92 209.51 1061.51 207.744 1054.67 205.868C1047.16 203.881 1041.09 201.894 1036.45 199.907C1031.93 197.92 1028.06 194.884 1024.86 190.8C1021.77 186.605 1020.23 180.92 1020.23 173.745C1020.23 168.226 1021.66 163.203 1024.53 158.677C1027.51 154.041 1031.71 150.398 1037.12 147.749C1042.52 145.099 1048.76 143.775 1055.83 143.775C1066.09 143.775 1074.37 146.314 1080.66 151.391C1086.96 156.469 1090.71 162.706 1091.92 170.102H1083.97C1083.31 167.122 1081.82 164.086 1079.5 160.995C1077.3 157.904 1074.1 155.365 1069.9 153.378C1065.82 151.281 1060.9 150.232 1055.16 150.232C1047.44 150.232 1040.92 152.385 1035.63 156.69C1030.33 160.885 1027.68 166.515 1027.68 173.579C1027.68 179.209 1029.06 183.735 1031.82 187.157C1034.58 190.469 1037.94 193.007 1041.92 194.774C1046 196.429 1051.47 198.14 1058.31 199.907C1065.93 202.004 1071.94 204.046 1076.36 206.033C1080.88 207.91 1084.69 210.945 1087.78 215.14C1090.98 219.224 1092.59 224.799 1092.59 231.864C1092.59 237.052 1091.21 241.964 1088.45 246.601C1085.69 251.237 1081.6 255.045 1076.19 258.026C1070.89 260.896 1064.44 262.331 1056.82 262.331ZM1122.34 144.934V261.172H1114.89V144.934H1122.34ZM1157.11 151.226V199.741H1203.47V206.033H1157.11V254.88H1208.44V261.172H1149.66V144.934H1208.44V151.226H1157.11ZM1339.45 147.418V261.172H1332V162.982L1288.28 261.172H1282.32L1238.44 162.982V261.172H1230.99V147.418H1238.94L1285.3 251.402L1331.66 147.418H1339.45Z" fill="#C4C4C4"/>
</svg>
